# File created by Blade
# Date/Time:  Tue Jan 27 19:00:46 2015
#---------------------------------------------------------
:version 1.10
:name HOM
:units
  mass 1.0
  length 1.000000
  angle deg
:documentation
     Acclaim Skeleton File
:root
   axis xyz
   order TX TY TZ RX RY RZ
   position 0.000000 0.000000 0.000000
   orientation 0 0 0
:bonedata
   begin
      id 1
      name Spine_dum
      direction 0.000000 1.000000 0.000000
      length 5.195262
      axis 0.0 0.0 0.0 xyz
   end
   begin
      id 2
      name LeftUpLeg_dum
      direction 1.000000 0.000000 0.000000
      length 3.351363
      axis 0.0 0.0 0.0 xyz
   end
   begin
      id 3
      name RightUpLeg_dum
      direction -1.000000 0.000000 0.000000
      length 3.351363
      axis 0.0 0.0 0.0 xyz
   end
   begin
      id 4
      name Spine
      direction 0.000000 1.000000 0.000000
      length 0.000000
      axis 0.0 0.0 0.0 xyz
      dof rx ry rz
   end
   begin
      id 5
      name Spine_dum1
      direction 0.000000 1.000000 0.000000
      length 15.653875
      axis 0.0 0.0 0.0 xyz
   end
   begin
      id 6
      name Spine_dum2
      direction 0.000000 1.000000 0.000000
      length 10.329768
      axis 0.0 0.0 0.0 xyz
   end
   begin
      id 7
      name Spine_dum3
      direction 0.000000 1.000000 0.000000
      length 10.329768
      axis 0.0 0.0 0.0 xyz
   end
   begin
      id 8
      name Head
      direction 0.000000 1.000000 0.000000
      length 4.527550
      axis 0.0 0.0 0.0 xyz
      dof rx ry rz
   end
   begin
      id 9
      name LeftShoulder
      direction 1.000000 0.000000 0.000000
      length 6.996006
      axis 0.0 0.0 -90.0 xyz
      dof rx ry rz
   end
   begin
      id 10
      name LeftArm
      direction 1.000000 0.000000 0.000000
      length 10.209302
      axis 0.0 0.0 -90.0 xyz
      dof rx ry rz
   end
   begin
      id 11
      name LeftForeArm
      direction 1.000000 0.000000 0.000000
      length 8.563163
      axis 0.0 0.0 -90.0 xyz
      dof ry rz rx
   end
   begin
      id 12
      name LeftHand
      direction 0.000000 0.000000 0.000000
      length 0.000000
      axis 0.0 0.0 -90.0 xyz
      dof rx ry rz
   end
   begin
      id 13
      name LeftHand_dum1
      direction 0.000000 0.000000 0.000000
      length 0.000000
      axis 0.0 0.0 -90.0 xyz
   end
   begin
      id 14
      name LeftHand_dum2
      direction 1.000000 0.000000 0.000000
      length 3.937000
      axis 0.0 0.0 -90.0 xyz
   end
   begin
      id 15
      name LeftHandThumb1
      direction 0.000000 0.000000 1.000000
      length 3.937000
      axis 0.0 0.0 -90.0 xyz
      dof rx rz ry
   end
   begin
      id 16
      name RightShoulder
      direction -1.000000 0.000000 0.000000
      length 6.996006
      axis 0.0 0.0 90.0 xyz
      dof rx ry rz
   end
   begin
      id 17
      name RightArm
      direction -1.000000 0.000000 0.000000
      length 10.209302
      axis 0.0 0.0 90.0 xyz
      dof rx ry rz
   end
   begin
      id 18
      name RightForeArm
      direction -1.000000 0.000000 0.000000
      length 8.563163
      axis 0.0 0.0 90.0 xyz
      dof ry rz rx
   end
   begin
      id 19
      name RightHand
      direction 0.000000 0.000000 0.000000
      length 0.000000
      axis 0.0 0.0 90.0 xyz
      dof rx ry rz
   end
   begin
      id 20
      name RightHand_dum1
      direction 0.000000 0.000000 0.000000
      length 0.000000
      axis 0.0 0.0 90.0 xyz
   end
   begin
      id 21
      name RightHand_dum2
      direction -1.000000 0.000000 0.000000
      length 3.937000
      axis 0.0 0.0 90.0 xyz
   end
   begin
      id 22
      name RightHandThumb1
      direction 0.000000 0.000000 1.000000
      length 3.937000
      axis 0.0 0.0 90.0 xyz
      dof rx rz ry
   end
   begin
      id 23
      name LeftUpLeg
      direction 0.000000 -1.000000 0.000000
      length 16.346831
      axis 0.0 0.0 0.0 xyz
      dof rx ry rz
   end
   begin
      id 24
      name LeftLeg
      direction 0.000000 -1.000000 0.000000
      length 13.959795
      axis 0.0 0.0 0.0 xyz
      dof rx ry rz
   end
   begin
      id 25
      name LeftFoot
      direction 0.000000 -0.258819 0.965926
      length 5.165550
      axis 15.0 0.0 0.0 xyz
      dof rx ry rz
   end
   begin
      id 26
      name LeftToeBase
      direction 0.000000 0.000000 1.000000
      length 2.952750
      axis 0.0 0.0 0.0 xyz
      dof rx ry rz
   end
   begin
      id 27
      name RightUpLeg
      direction 0.000000 -1.000000 0.000000
      length 16.346831
      axis 0.0 0.0 0.0 xyz
      dof rx ry rz
   end
   begin
      id 28
      name RightLeg
      direction 0.000000 -1.000000 0.000000
      length 13.959795
      axis 0.0 0.0 0.0 xyz
      dof rx ry rz
   end
   begin
      id 29
      name RightFoot
      direction 0.000000 -0.258819 0.965926
      length 5.165550
      axis 15.0 0.0 0.0 xyz
      dof rx ry rz
   end
   begin
      id 30
      name RightToeBase
      direction 0.000000 0.000000 1.000000
      length 2.952750
      axis 0.0 0.0 0.0 xyz
      dof rx ry rz
   end
:hierarchy
   begin
      root Spine_dum LeftUpLeg_dum RightUpLeg_dum
      Spine_dum Spine
      LeftUpLeg_dum LeftUpLeg
      RightUpLeg_dum RightUpLeg
      Spine Spine_dum1 Spine_dum2 Spine_dum3
      Spine_dum1 Head
      Spine_dum2 LeftShoulder
      Spine_dum3 RightShoulder
      LeftShoulder LeftArm
      LeftArm LeftForeArm
      LeftForeArm LeftHand
      LeftHand LeftHand_dum1 LeftHand_dum2
      LeftHand_dum1 LeftHandThumb1
      RightShoulder RightArm
      RightArm RightForeArm
      RightForeArm RightHand
      RightHand RightHand_dum1 RightHand_dum2
      RightHand_dum1 RightHandThumb1
      LeftUpLeg LeftLeg
      LeftLeg LeftFoot
      LeftFoot LeftToeBase
      RightUpLeg RightLeg
      RightLeg RightFoot
      RightFoot RightToeBase
   end

# File created by Blade
# Date/Time:  Tue Jan 27 19:00:36 2015
# Frame Rate: 120.000 fps
#------------------------------------------------------
:FULLY-SPECIFIED
:DEGREES
1199
root -1.477804 31.625207 -4.987299 3.286393 5.782641 -2.928352
Spine -1.113795 -7.890441 -1.274213
Head 23.020754 -3.794895 4.412259
LeftShoulder -16.504766 16.412470 14.353299
LeftArm 7.354923 -45.176482 -69.271215
LeftForeArm -10.556087 -0.000000 80.198898
LeftHand -8.373796 -0.000000 22.748850
LeftHandThumb1 -26.253704 0.000000 33.147579
RightShoulder -14.260912 -4.945896 -8.271650
RightArm 4.646516 -31.469553 86.723082
RightForeArm -23.621970 -0.000000 22.310309
RightHand -14.610245 -0.000000 9.799763
RightHandThumb1 -24.326973 -0.000000 -32.862282
LeftUpLeg -5.895191 -1.271661 -7.285400
LeftLeg 16.004719 -0.000000 -0.000000
LeftFoot -27.035630 23.028824 -17.068971
LeftToeBase 11.033473 -0.000000 -0.000000
RightUpLeg -35.774475 -8.422554 -0.770744
RightLeg 73.903709 -0.000000 -0.000000
RightFoot -14.409996 -2.546568 26.595558
RightToeBase 5.494238 -0.000000 -0.000000
1200
root -1.485187 31.625282 -4.976243 3.281021 5.766836 -2.933776
Spine -1.138357 -7.974848 -1.243701
Head 23.041902 -3.670294 4.316275
LeftShoulder -16.540282 16.353625 14.255802
LeftArm 7.224040 -45.045398 -68.962284
LeftForeArm -10.463725 -0.000000 80.120224
LeftHand -8.399482 -0.000000 23.097858
LeftHandThumb1 -26.253704 0.000000 33.147579
RightShoulder -14.279189 -4.957751 -8.287275
RightArm 4.566303 -31.520870 86.810832
RightForeArm -23.510370 -0.000000 22.237567
RightHand -14.667401 -0.000000 9.889758
RightHandThumb1 -24.326973 -0.000000 -32.862282
LeftUpLeg -5.897408 -1.220608 -7.264385
LeftLeg 16.056122 -0.000000 -0.000000
LeftFoot -27.073195 22.983950 -17.101375
LeftToeBase 11.007307 -0.000000 -0.000000
RightUpLeg -35.839019 -8.469719 -0.693211
RightLeg 73.844670 -0.000000 -0.000000
RightFoot -14.272181 -2.666168 26.292908
RightToeBase 4.951152 -0.000000 -0.000000
1201
root -1.492408 31.626189 -4.965231 3.274045 5.761649 -2.953630
Spine -1.170325 -8.049441 -1.208640
Head 23.079801 -3.592835 4.241209
LeftShoulder -16.588215 16.366424 14.104490
LeftArm 7.454358 -45.195583 -68.935236
LeftForeArm -10.314701 -0.000000 80.041010
LeftHand -8.736950 -0.000000 23.207874
LeftHandThumb1 -26.253704 0.000000 33.147579
RightShoulder -14.305339 -4.983423 -8.285964
RightArm 4.498752 -31.503914 86.872777
RightForeArm -23.540633 -0.000000 22.171558
RightHand -14.494228 0.000000 10.179040
RightHandThumb1 -24.326973 -0.000000 -32.862282
LeftUpLeg -5.898969 -1.188249 -7.232521
LeftLeg 16.104493 -0.000000 -0.000000
LeftFoot -27.108873 22.962366 -17.124231
LeftToeBase 11.026882 -0.000000 -0.000000
RightUpLeg -35.896895 -8.508923 -0.612758
RightLeg 73.792626 -0.000000 -0.000000
RightFoot -14.279720 -2.656267 26.253670
RightToeBase 4.884375 -0.000000 -0.000000
1202
root -1.499196 31.627624 -4.954957 3.257478 5.776771 -2.973837
Spine -1.197500 -8.114791 -1.189500
Head 23.131782 -3.544886 4.240427
LeftShoulder -16.652703 16.456386 14.048618
LeftArm 7.662979 -45.170708 -69.030579
LeftForeArm -10.298850 -0.000000 80.025600
LeftHand -8.790689 -0.000000 22.816249
LeftHandThumb1 -26.253704 0.000000 33.147579
RightShoulder -14.316055 -5.020411 -8.247438
RightArm 4.415969 -31.488210 86.915104
RightForeArm -23.433371 -0.000000 22.102084
RightHand -14.433184 -0.000000 10.267927
RightHandThumb1 -24.326973 -0.000000 -32.862282
LeftUpLeg -5.887055 -1.185581 -7.200358
LeftLeg 16.138262 -0.000000 -0.000000
LeftFoot -27.129020 22.987401 -17.099894
LeftToeBase 11.082889 -0.000000 -0.000000
RightUpLeg -35.939534 -8.555682 -0.534790
RightLeg 73.718165 -0.000000 -0.000000
RightFoot -14.332888 -2.623671 26.368102
RightToeBase 5.021536 -0.000000 -0.000000
1203
root -1.506689 31.627747 -4.944750 3.256389 5.787734 -2.988134
Spine -1.224508 -8.196778 -1.139355
Head 23.104603 -3.447772 4.163261
LeftShoulder -16.662574 16.411737 13.961616
LeftArm 7.530337 -45.173554 -68.814787
LeftForeArm -10.624383 -0.000000 80.035666
LeftHand -8.583898 -0.000000 22.565347
LeftHandThumb1 -26.253704 0.000000 33.147579
RightShoulder -14.346875 -5.052397 -8.264229
RightArm 4.336637 -31.419285 87.004966
RightForeArm -23.345369 -0.000000 22.054039
RightHand -14.443169 -0.000000 10.491753
RightHandThumb1 -24.326973 -0.000000 -32.862282
LeftUpLeg -5.888934 -1.195378 -7.174136
LeftLeg 16.174901 -0.000000 -0.000000
LeftFoot -27.133259 23.036926 -17.046614
LeftToeBase 11.036663 -0.000000 -0.000000
RightUpLeg -35.996701 -8.563013 -0.473614
RightLeg 73.651013 -0.000000 -0.000000
RightFoot -14.400292 -2.579123 26.553718
RightToeBase 5.153058 -0.000000 -0.000000
1204
root -1.512943 31.627494 -4.934905 3.242739 5.813672 -3.003367
Spine -1.236642 -8.268468 -1.107829
Head 23.080416 -3.425458 4.123040
LeftShoulder -16.679924 16.426925 13.906391
LeftArm 7.423339 -45.008421 -68.637510
LeftForeArm -10.787997 -0.000000 80.094240
LeftHand -8.505873 0.000000 22.716293
LeftHandThumb1 -26.253704 0.000000 33.147579
RightShoulder -14.366210 -5.071047 -8.269386
RightArm 4.238858 -31.452949 87.087698
RightForeArm -23.643872 -0.000000 22.006587
RightHand -14.402136 -0.000000 10.601997
RightHandThumb1 -24.326973 -0.000000 -32.862282
LeftUpLeg -5.874745 -1.212653 -7.152489
LeftLeg 16.201966 -0.000000 -0.000000
LeftFoot -27.152326 23.100321 -17.037701
LeftToeBase 10.851367 -0.000000 -0.000000
RightUpLeg -36.045075 -8.584044 -0.412939
RightLeg 73.576773 -0.000000 -0.000000
RightFoot -14.407887 -2.558915 26.618044
RightToeBase 5.238423 -0.000000 -0.000000
1205
root -1.518536 31.626686 -4.926905 3.236514 5.839316 -3.007716
Spine -1.247204 -8.317342 -1.097109
Head 23.044876 -3.420108 4.117413
LeftShoulder -16.709576 16.475537 13.911153
LeftArm 7.511560 -44.860913 -68.695531
LeftForeArm -10.614147 -0.000000 80.080020
LeftHand -8.496129 0.000000 22.793518
LeftHandThumb1 -26.253704 0.000000 33.147579
RightShoulder -14.392940 -5.110363 -8.260213
RightArm 4.185815 -31.450326 87.136764
RightForeArm -23.226814 -0.000000 21.936667
RightHand -14.420185 -0.000000 10.750741
RightHandThumb1 -24.326973 -0.000000 -32.862282
LeftUpLeg -5.864767 -1.234511 -7.144704
LeftLeg 16.231818 -0.000000 -0.000000
LeftFoot -27.170244 23.163494 -16.992571
LeftToeBase 10.903906 -0.000000 -0.000000
RightUpLeg -36.104793 -8.601658 -0.370886
RightLeg 73.496820 -0.000000 -0.000000
RightFoot -14.533060 -2.474370 27.049188
RightToeBase 5.840012 -0.000000 -0.000000
1206
root -1.525333 31.625753 -4.918393 3.235884 5.869889 -3.009050
Spine -1.263643 -8.340750 -1.093167
Head 22.993525 -3.467532 4.105009
LeftShoulder -16.699698 16.467467 13.897524
LeftArm 7.582549 -44.845045 -68.722790
LeftForeArm -10.664841 -0.000000 80.098177
LeftHand -8.519789 -0.000000 22.763305
LeftHandThumb1 -26.253704 0.000000 33.147579
RightShoulder -14.443785 -5.140401 -8.247124
RightArm 4.113365 -31.513765 87.198334
RightForeArm -23.206199 -0.000000 21.813089
RightHand -14.286237 -0.000000 10.736219
RightHandThumb1 -24.326973 -0.000000 -32.862282
LeftUpLeg -5.849013 -1.268032 -7.134757
LeftLeg 16.235955 -0.000000 -0.000000
LeftFoot -27.159468 23.258134 -16.940530
LeftToeBase 10.756804 -0.000000 -0.000000
RightUpLeg -36.150977 -8.599191 -0.339746
RightLeg 73.413943 -0.000000 -0.000000
RightFoot -14.436131 -2.478549 26.839963
RightToeBase 5.407589 -0.000000 -0.000000
